<svg width="96" height="96" viewBox="0 0 96 96" fill="none" xmlns="http://www.w3.org/2000/svg">
<rect x="5" y="5" width="86" height="86" rx="43" stroke="black" stroke-width="10"/>
<path d="M70.651 44.4833L73.1928 46.812C74.2691 47.7981 74.2691 49.3925 73.1928 50.3681L50.9464 70.7605C49.8702 71.7465 48.1298 71.7465 47.065 70.7605L24.8072 50.3681C23.7309 49.382 23.7309 47.7876 24.8072 46.812L27.349 44.4833C28.4367 43.4867 30.2114 43.5077 31.2762 44.5252L44.4202 57.1655L44.4202 27.0176C44.4202 25.6224 45.6453 24.5 47.1681 24.5L50.8319 24.5C52.3547 24.5 53.5798 25.6224 53.5798 27.0176L53.5798 57.1655L66.7238 44.5252C67.7886 43.4972 69.5633 43.4762 70.651 44.4833Z" fill="black"/>
</svg>
