<svg width="100" height="100" viewBox="0 0 100 100" fill="none" xmlns="http://www.w3.org/2000/svg">
<rect width="100" height="100" fill="white"/>
<path fill-rule="evenodd" clip-rule="evenodd" d="M93.4999 41.5V51.5H88.4999V46.5L63.4999 46.5H58.4999L58.4999 41.5L58.4999 13.5L43.4999 13.5L43.4999 46.5H42.4999L38.4999 46.5L12.4999 46.5V51.5L7.49994 51.5V41.5L12.4999 41.5L38.4999 41.5L38.4999 8.50001L43.4999 8.50001L58.4999 8.50001L63.4999 8.50001L63.4999 41.5L88.4999 41.5H93.4999ZM17.4999 56.5H12.4999L12.4999 51.5H17.4999L17.4999 56.5ZM22.4999 61.5L17.4999 61.5V56.5L22.4999 56.5V61.5ZM27.4999 66.5H22.4999L22.4999 61.5L27.4999 61.5L27.4999 66.5ZM32.4999 71.5H27.4999L27.4999 66.5H32.4999V71.5ZM37.4999 76.5H32.4999L32.4999 71.5H37.4999L37.4999 76.5ZM42.4999 81.5H37.4999V76.5H42.4999V81.5ZM47.4999 86.5H42.4999L42.4999 81.5H47.4999L47.4999 86.5ZM53.4999 86.5L53.4999 91.5H52.4999H48.4999L47.4999 91.5L47.4999 86.5L48.4999 86.5H52.4999H53.4999ZM58.4999 81.5V86.5H53.4999V81.5H58.4999ZM63.4999 76.5L63.4999 81.5H58.4999V76.5H63.4999ZM68.4999 71.5V76.5H63.4999V71.5H68.4999ZM73.4999 66.5V71.5L68.4999 71.5V66.5L73.4999 66.5ZM78.4999 61.5V66.5H73.4999V61.5H78.4999ZM83.4999 56.5V61.5H78.4999V56.5H83.4999ZM83.4999 56.5L88.4999 56.5L88.4999 51.5L83.4999 51.5L83.4999 56.5Z" fill="black"/>
<path d="M17.9999 51.5V51H17.4999H12.9999V47L43.4999 47H43.9999V46.5L43.9999 14L57.9999 14L57.9999 46.5V47H58.4999L87.9999 47V51H83.4999H82.9999V51.5V56L78.4999 56H77.9999V56.5L77.9999 61H73.4999H72.9999V61.5V66H68.4999H67.9999V66.5V71L63.4999 71H62.9999V71.5V76H58.4999H57.9999V76.5V81H53.4999H52.9999L52.9999 81.5V86H47.9999V81.5L47.9999 81H47.4999L42.9999 81V76.5V76H42.4999H37.9999V71.5V71H37.4999H32.9999V66.5L32.9999 66H32.4999H27.9999V61.5V61H27.4999H22.9999L22.9999 56.5V56H22.4999L17.9999 56V51.5Z" fill="white" stroke="black"/>
</svg>
