<svg width="96" height="96" viewBox="0 0 96 96" fill="none" xmlns="http://www.w3.org/2000/svg">
<rect x="5" y="5" width="86" height="86" rx="43" stroke="black" stroke-width="10"/>
<path d="M51.0167 69.651L48.688 72.1928C47.7019 73.2691 46.1075 73.2691 45.1319 72.1928L24.7395 49.9464C23.7535 48.8702 23.7535 47.1298 24.7395 46.065L45.1319 23.8072C46.118 22.7309 47.7124 22.7309 48.688 23.8072L51.0167 26.349C52.0133 27.4367 51.9923 29.2114 50.9748 30.2762L38.3345 43.4202L68.4824 43.4202C69.8776 43.4202 71 44.6453 71 46.1681V49.8319C71 51.3547 69.8776 52.5798 68.4824 52.5798L38.3345 52.5798L50.9748 65.7238C52.0028 66.7886 52.0238 68.5633 51.0167 69.651Z" fill="black"/>
</svg>
