<svg width="100" height="100" viewBox="0 0 100 100" fill="none" xmlns="http://www.w3.org/2000/svg">
<rect width="100" height="100" fill="white"/>
<path fill-rule="evenodd" clip-rule="evenodd" d="M58.9999 93L48.9999 93V88H53.9999L53.9999 63V58H58.9999L86.9999 58V43L53.9999 43V42L53.9999 38L53.9999 12H48.9999V7.00001L58.9999 7.00001V12L58.9999 38L91.9999 38V43L91.9999 58V63L58.9999 63L58.9999 88V93ZM43.9999 17V12H48.9999V17H43.9999ZM38.9999 22V17H43.9999V22H38.9999ZM33.9999 27V22H38.9999V27H33.9999ZM28.9999 32L28.9999 27L33.9999 27L33.9999 32H28.9999ZM23.9999 37L23.9999 32L28.9999 32V37L23.9999 37ZM18.9999 42V37H23.9999V42H18.9999ZM13.9999 47V42L18.9999 42V47L13.9999 47ZM13.9999 53H8.99989V52V48V47H13.9999V48V52V53ZM18.9999 58L13.9999 58L13.9999 53L18.9999 53L18.9999 58ZM23.9999 63H18.9999V58H23.9999V63ZM28.9999 68H23.9999V63H28.9999L28.9999 68ZM33.9999 73L28.9999 73V68L33.9999 68V73ZM38.9999 78H33.9999L33.9999 73H38.9999L38.9999 78ZM43.9999 83H38.9999V78H43.9999V83ZM43.9999 83L43.9999 88H48.9999L48.9999 83H43.9999Z" fill="black"/>
<path d="M48.9999 17.5H49.4999V17V12.5L53.4999 12.5L53.4999 43V43.5H53.9999L86.4999 43.5L86.4999 57.5L53.9999 57.5H53.4999V58L53.4999 87.5L49.4999 87.5V83V82.5H48.9999H44.4999L44.4999 78V77.5H43.9999H39.4999V73V72.5H38.9999H34.4999L34.4999 68V67.5H33.9999H29.4999V63V62.5H28.9999H24.4999L24.4999 58V57.5L23.9999 57.5H19.4999V53V52.5H18.9999H14.4999L14.4999 47.5H18.9999H19.4999V47V42.5L23.9999 42.5H24.4999V42V37.5H28.9999H29.4999V37L29.4999 32.5L33.9999 32.5H34.4999V32V27.5H38.9999H39.4999V27L39.4999 22.5H43.9999H44.4999V22V17.5H48.9999Z" fill="white" stroke="black"/>
</svg>
