<svg width="100" height="100" viewBox="0 0 100 100" fill="none" xmlns="http://www.w3.org/2000/svg">
<rect width="100" height="100" fill="white"/>
<path fill-rule="evenodd" clip-rule="evenodd" d="M42 7H52V12H47V37V42H42H14V57H47V58V62V88H52V93H42V88V62H9V57V42V37H42V12V7ZM57 83V88H52V83H57ZM62 78V83H57V78H62ZM67 73V78H62V73H67ZM72 68V73H67V68H72ZM77 63V68H72V63H77ZM82 58V63H77V58H82ZM87 53V58H82V53H87ZM87 47H92V48V52V53H87V52V48V47ZM82 42H87V47H82V42ZM77 37H82V42H77V37ZM72 32H77V37H72V32ZM67 27H72V32H67V27ZM62 22H67V27H62V22ZM57 17H62V22H57V17ZM57 17V12H52V17H57Z" fill="black"/>
<path d="M52 82.5H51.5V83V87.5H47.5V57V56.5H47H14.5V42.5H47H47.5V42V12.5H51.5V17V17.5H52H56.5V22V22.5H57H61.5V27V27.5H62H66.5V32V32.5H67H71.5V37V37.5H72H76.5V42V42.5H77H81.5V47V47.5H82H86.5V52.5H82H81.5V53V57.5H77H76.5V58V62.5H72H71.5V63V67.5H67H66.5V68V72.5H62H61.5V73V77.5H57H56.5V78V82.5H52Z" fill="black" stroke="black"/>
</svg>
