<svg width="96" height="96" viewBox="0 0 96 96" fill="none" xmlns="http://www.w3.org/2000/svg">
<rect x="5" y="5" width="86" height="86" rx="43" stroke="black" stroke-width="10"/>
<path d="M43.9833 26.349L46.312 23.8072C47.2981 22.7309 48.8925 22.7309 49.8681 23.8072L70.2605 46.0536C71.2465 47.1298 71.2465 48.8702 70.2605 49.935L49.8681 72.1928C48.882 73.2691 47.2876 73.2691 46.312 72.1928L43.9833 69.651C42.9867 68.5633 43.0077 66.7886 44.0252 65.7238L56.6656 52.5798L26.5176 52.5798C25.1224 52.5798 24 51.3547 24 49.8319L24 46.1681C24 44.6453 25.1224 43.4202 26.5176 43.4202L56.6656 43.4202L44.0252 30.2762C42.9972 29.2114 42.9762 27.4367 43.9833 26.349Z" fill="black"/>
</svg>
