<svg width="96" height="96" viewBox="0 0 96 96" fill="none" xmlns="http://www.w3.org/2000/svg">
<rect x="5" y="5" width="86" height="86" rx="43" stroke="black" stroke-width="10"/>
<path d="M27.349 51.5167L24.8072 49.188C23.7309 48.2019 23.7309 46.6075 24.8072 45.6319L47.0536 25.2395C48.1298 24.2535 49.8702 24.2535 50.935 25.2395L73.1928 45.6319C74.2691 46.618 74.2691 48.2124 73.1928 49.188L70.651 51.5167C69.5633 52.5133 67.7886 52.4923 66.7238 51.4748L53.5798 38.8345L53.5798 68.9824C53.5798 70.3776 52.3547 71.5 50.8319 71.5L47.1681 71.5C45.6453 71.5 44.4202 70.3776 44.4202 68.9824L44.4202 38.8345L31.2762 51.4748C30.2114 52.5028 28.4367 52.5238 27.349 51.5167Z" fill="black"/>
</svg>
