<svg width="100" height="100" viewBox="0 0 100 100" fill="none" xmlns="http://www.w3.org/2000/svg">
<rect width="100" height="100" fill="white"/>
<path fill-rule="evenodd" clip-rule="evenodd" d="M7.5 58.5L7.5 48.5H12.5L12.5 53.5L37.5 53.5H42.5V58.5L42.5 86.5H57.5L57.5 53.5H58.5H62.5H88.5V48.5H93.5V58.5H88.5H62.5L62.5 91.5H57.5H42.5H37.5V58.5L12.5 58.5H7.5ZM83.5 43.5H88.5V48.5H83.5V43.5ZM78.5 38.5H83.5V43.5H78.5V38.5ZM73.5 33.5H78.5V38.5H73.5V33.5ZM68.5 28.5H73.5L73.5 33.5H68.5V28.5ZM63.5 23.5L68.5 23.5V28.5H63.5V23.5ZM58.5 18.5H63.5V23.5H58.5V18.5ZM53.5 13.5H58.5V18.5H53.5V13.5ZM47.5 13.5V8.50001H48.5H52.5H53.5V13.5H52.5H48.5H47.5ZM42.5 18.5V13.5H47.5V18.5H42.5ZM37.5 23.5V18.5H42.5V23.5H37.5ZM32.5 28.5V23.5H37.5V28.5L32.5 28.5ZM27.5 33.5V28.5H32.5V33.5H27.5ZM22.5 38.5V33.5H27.5V38.5H22.5ZM17.5 43.5V38.5H22.5V43.5H17.5ZM17.5 43.5H12.5L12.5 48.5H17.5V43.5Z" fill="black"/>
<path d="M83 48.5V49H83.5H88V53H57.5H57V53.5L57 86H43V53.5V53H42.5L13 53L13 49H17.5H18V48.5L18 44H22.5H23V43.5V39H27.5H28V38.5V34H32.5H33V33.5V29H37.5H38V28.5V24L42.5 24H43V23.5V19H47.5H48V18.5V14H53V18.5V19H53.5H58V23.5V24H58.5H63V28.5V29H63.5H68V33.5V34H68.5H73V38.5V39H73.5H78V43.5V44H78.5H83V48.5Z" fill="white" stroke="black"/>
</svg>
